<?xml version="1.0" encoding="UTF-8" standalone="no"?>
<svg
   xmlns:dc="http://purl.org/dc/elements/1.1/"
   xmlns:cc="http://creativecommons.org/ns#"
   xmlns:rdf="http://www.w3.org/1999/02/22-rdf-syntax-ns#"
   xmlns:svg="http://www.w3.org/2000/svg"
   xmlns="http://www.w3.org/2000/svg"
   xmlns:sodipodi="http://sodipodi.sourceforge.net/DTD/sodipodi-0.dtd"
   xmlns:inkscape="http://www.inkscape.org/namespaces/inkscape"
   enable-background="new 0 0 512 512"
   id="Layer_1"
   version="1.1"
   viewBox="0 0 512 512"
   xml:space="preserve"
   inkscape:version="0.91 r13725"
   sodipodi:docname="icon-linkedin.svg"
   width="512"
   height="512"><metadata
     id="metadata21"><rdf:RDF><cc:Work
         rdf:about=""><dc:format>image/svg+xml</dc:format><dc:type
           rdf:resource="http://purl.org/dc/dcmitype/StillImage" /><dc:title /></cc:Work></rdf:RDF></metadata><defs
     id="defs19" /><sodipodi:namedview
     pagecolor="#ffffff"
     bordercolor="#666666"
     borderopacity="1"
     objecttolerance="10"
     gridtolerance="10"
     guidetolerance="10"
     inkscape:pageopacity="0"
     inkscape:pageshadow="2"
     inkscape:window-width="1074"
     inkscape:window-height="746"
     id="namedview17"
     showgrid="false"
     inkscape:zoom="0.4609375"
     inkscape:cx="256"
     inkscape:cy="256"
     inkscape:window-x="65"
     inkscape:window-y="46"
     inkscape:window-maximized="0"
     inkscape:current-layer="Layer_1"
     inkscape:snap-page="true" /><g
     id="g3"
     transform="matrix(0.7267858,0,0,0.7122381,67.527451,1.1740544)"><path
       d="M 1,53 C 3.5,53 2.7,51 2.9,49.7 5.9,29 16.6,13.9 36.6,7.4 c 16.1,-5.2 32.9,-4.6 47.9,4 9.4,5.5 16.6,14 20.4,24.5 2.8,7.8 4.9,15.9 4,24.2 -2.1,20.9 -11.5,38.3 -34.5,46.4 -17.4,6 -34.3,3.8 -50.2,-5.7 -1,-3.6 -3.5,-5.4 -7.1,-6 0,0 0,0 0,0 C 17,93.4 16.8,92 14.9,92 7.7,84 4.3,74.3 2.9,63.8 2.7,62.6 3.2,60.9 1,61 1,58.3 1,55.7 1,53 Z"
       id="path5"
       inkscape:connector-curvature="0"
       style="fill:#a7a7a7" /><path
       d="m 276.2,216.1 c 4.3,-2.6 6,-6.4 8.2,-9.5 10.9,-15 24.4,-26.6 41.2,-34.9 23,-11.3 47.4,-12.5 72,-10.2 18.9,1.7 36.8,8.1 53.1,18.5 19.4,12.4 33.3,29.6 42.8,50.2 5.8,12.5 9.6,25.8 11.9,39.6 2.1,12.9 3.7,25.6 3.7,38.7 -0.1,65 -0.1,130 0.1,195 0,4.6 -1.3,5.8 -5.8,5.7 -30.7,-0.2 -61.3,-0.2 -92,0 -4.5,0 -5.5,-1.3 -5.5,-5.6 0.1,-61.3 0.4,-122.7 -0.1,-184 -0.1,-13.9 -2,-27.7 -9.2,-40.4 -6.4,-11.2 -15.3,-19.2 -27,-23.8 -15.7,-6.2 -31.9,-7.4 -48.3,-2.8 -16.6,4.6 -28.1,15.5 -36.3,30.3 -4.6,8.3 -6.2,17 -7.5,26.3 -1.3,10 -1.1,19.8 -1.1,29.7 -0.2,54.7 -0.2,109.3 0,164 0,5 -1.2,6.4 -6.3,6.3 -30.3,-0.3 -60.7,-0.2 -91,0 -4.2,0 -5.7,-1.3 -5.6,-5.2 0.1,-2.8 0.3,-5.6 0.3,-8.4 0,-105.5 0.1,-211 -0.1,-316.5 0,-4.4 0.9,-6 5.7,-6 30.5,0.2 61,0.2 91.5,0 4.1,0 5.5,1 5.4,5.3 -0.3,12.2 -0.1,24.5 -0.1,37.7 z"
       id="path7"
       inkscape:connector-curvature="0"
       style="fill:#a7a7a7" /><path
       d="m 109,176.1 c 0,3.5 0.1,7 0.1,10.5 0,105.3 0,210.6 0,316 0,6.4 0,6.4 -6.5,6.4 -31.8,0 -63.7,0 -95.5,0 -0.1,-2.5 -0.2,-5 -0.2,-7.5 0,-78.8 0,-157.5 0,-236.3 0,-28.1 0.1,-56.3 -0.1,-84.4 0,-3.6 0.9,-4.9 4.7,-4.9 32.5,0.2 65,0.1 97.5,0.2 z"
       id="path9"
       inkscape:connector-curvature="0"
       style="fill:#a7a7a7" /><path
       d="m 109,176.1 c -32.5,0 -64.9,0 -97.4,-0.2 -3.8,0 -4.7,1.2 -4.7,4.9 0.1,28.1 0,56.2 0,84.4 0,78.8 0,157.5 0,236.3 0,2.5 0.1,5 0.2,7.5 -1.7,0.1 -3,-0.3 -3,-2.3 0,-1.3 0,-2.7 0,-4 0,-106.8 0,-213.5 0,-320.3 0,-7.6 0.7,-8.3 8.2,-8.3 30.5,0 61,0 91.4,0.1 1.8,-0.1 4.5,-1.5 5.3,1.9 z"
       id="path11"
       inkscape:connector-curvature="0"
       style="fill:#e0e0e0" /><path
       d="m 17.1,94.9 c 3.6,0.6 6.1,2.4 7.1,6 -3.1,-1.2 -5.4,-3.2 -7.1,-6 z"
       id="path13"
       inkscape:connector-curvature="0"
       style="fill:#e0e0e0" /><path
       d="m 14.9,92.1 c 1.9,0 2,1.4 2.2,2.8 C 15,95 15,93.6 14.9,92.1 Z"
       id="path15"
       inkscape:connector-curvature="0"
       style="fill:#e0e0e0" /></g></svg>